<svg xmlns="http://www.w3.org/2000/svg" viewBox="0 0 2352.0 720.0" role="img" aria-label="HUB42">
  <title>HUB42</title>
  <g fill="#C8964A" transform="translate(0 720.0) scale(1 -1) translate(0 10.0)">
      <path transform="translate(-41.0 0)" d="M41 700H151V415H269V700H379V0H269V315H151V0H41Z"/>
      <path transform="translate(479.0 0)" d="M37 166V700H147V158Q147 122 161.5 106.0Q176 90 203 90Q230 90 244.5 106.0Q259 122 259 158V700H365V166Q365 81 323.0 35.5Q281 -10 201 -10Q121 -10 79.0 35.5Q37 81 37 166Z"/>
      <path transform="translate(981.0 0)" d="M41 700H207Q292 700 331.0 660.5Q370 621 370 539V511Q370 457 352.5 423.0Q335 389 299 374V372Q381 344 381 226V166Q381 85 338.5 42.5Q296 0 214 0H41ZM194 415Q227 415 243.5 432.0Q260 449 260 489V528Q260 566 246.5 583.0Q233 600 204 600H151V415ZM214 100Q243 100 257.0 115.5Q271 131 271 169V230Q271 278 254.5 296.5Q238 315 200 315H151V100Z"/>
      <path transform="translate(1485.0 0)" d="M225 127H15V227L215 700H335V227H387V127H335V0H225ZM225 227V500H223L115 227Z"/>
      <path transform="translate(1985.0 0)" d="M39 76Q39 151 63.0 204.5Q87 258 149 323Q210 388 233.5 434.0Q257 480 257 530Q257 575 242.5 592.5Q228 610 200 610Q143 610 143 541V466H39V534Q39 619 81.0 664.5Q123 710 203 710Q283 710 325.0 664.5Q367 619 367 534Q367 470 336.5 409.0Q306 348 231 269Q182 217 165.0 184.5Q148 152 148 115V100H357V0H39Z"/>
  </g>
</svg>
